<?xml version="1.0" standalone="no"?>
<!DOCTYPE svg PUBLIC "-//W3C//DTD SVG 20010904//EN"
 "http://www.w3.org/TR/2001/REC-SVG-20010904/DTD/svg10.dtd">
<svg version="1.0" xmlns="http://www.w3.org/2000/svg"
 width="1024.000000pt" height="1024.000000pt" viewBox="0 0 1024.000000 1024.000000"
 preserveAspectRatio="xMidYMid meet">
<metadata>
Created by potrace 1.14, written by Peter Selinger 2001-2017
</metadata>
<g transform="translate(0.000000,1024.000000) scale(0.100000,-0.100000)"
fill="#000000" stroke="none">
<path d="M2419 10235 c-3 -2 -21 -7 -40 -9 -19 -3 -50 -8 -69 -11 -19 -4 -39
-8 -45 -9 -5 -1 -16 -5 -22 -9 -7 -5 -13 -6 -13 -3 0 11 -176 -57 -255 -97
-127 -65 -231 -143 -337 -251 -59 -60 -171 -210 -191 -256 -7 -14 -14 -27 -17
-30 -6 -5 -71 -148 -75 -165 -1 -5 -5 -17 -8 -25 -5 -12 -27 -88 -32 -110 -30
-135 -30 -80 -30 -4145 0 -2200 4 -4013 8 -4030 5 -16 10 -43 13 -60 2 -16 7
-39 11 -50 4 -11 8 -26 9 -32 6 -35 48 -152 71 -197 94 -188 199 -325 334
-438 24 -21 50 -43 57 -49 28 -23 132 -89 141 -89 5 0 11 -3 13 -8 5 -11 181
-88 184 -80 0 2 7 -2 15 -8 8 -7 30 -15 49 -19 19 -4 39 -10 45 -13 5 -3 18
-7 30 -9 11 -1 58 -9 105 -17 74 -13 439 -15 2790 -13 2446 2 2711 4 2763 18
32 9 59 17 60 17 8 0 95 24 107 29 8 3 20 7 25 8 17 4 160 69 165 75 3 3 16
10 30 17 40 17 182 123 245 181 148 138 264 317 335 517 17 50 31 91 31 93 -1
1 -1 3 0 5 0 1 2 9 4 17 10 48 16 80 23 120 9 58 9 7967 0 8040 -4 30 -11 70
-17 88 -5 17 -8 32 -5 32 3 0 0 8 -5 19 -6 10 -13 33 -16 51 -3 18 -9 38 -13
44 -4 6 -7 13 -8 16 -5 26 -78 185 -86 188 -5 2 -8 8 -8 13 0 9 -66 113 -89
141 -6 7 -28 33 -49 57 -20 25 -62 68 -92 97 -47 45 -73 67 -145 121 -89 68
-309 171 -398 187 -6 1 -21 5 -32 9 -11 4 -34 9 -50 11 -17 3 -41 8 -55 13
-26 8 -5453 17 -5461 8z m801 -1275 c9 5 22 5 30 0 7 -4 24 -4 36 0 14 6 26 5
29 0 3 -6 15 -6 30 0 15 6 27 6 30 0 3 -6 15 -6 30 0 15 6 27 6 30 0 4 -6 13
-7 24 -1 9 5 23 6 31 1 7 -4 24 -4 36 0 14 6 26 5 29 0 3 -6 15 -6 30 0 15 6
27 6 30 0 3 -6 15 -6 30 0 15 6 27 6 30 0 4 -6 13 -7 24 -1 10 6 23 6 31 1 8
-5 21 -5 31 0 9 5 19 7 23 3 9 -9 58 -10 83 -1 12 4 25 3 28 -2 3 -6 15 -6 30
0 15 6 27 6 30 -1 4 -5 11 -6 17 -3 14 9 138 11 138 2 0 -4 11 -3 25 2 16 6
25 6 25 0 0 -6 9 -6 25 0 15 6 27 6 30 0 3 -6 15 -6 30 0 15 6 27 6 30 -1 4
-5 11 -6 17 -3 14 9 138 11 138 2 0 -4 11 -3 25 2 16 6 25 6 25 0 0 -6 9 -6
25 0 15 6 27 6 30 0 3 -6 15 -6 30 0 15 6 27 6 30 -1 4 -5 11 -6 17 -3 14 9
138 11 138 2 0 -4 11 -3 25 2 16 6 25 6 25 0 0 -6 9 -6 25 0 15 6 27 6 30 0 3
-6 15 -6 30 0 15 6 27 6 30 -1 4 -5 11 -6 17 -3 14 9 138 11 138 2 0 -4 10 -4
23 0 25 9 74 8 83 -1 3 -3 17 -2 30 3 14 6 26 6 29 0 3 -5 15 -6 28 -1 12 5
32 5 44 0 13 -5 25 -4 28 1 3 6 15 6 30 0 15 -6 25 -6 25 0 0 5 12 5 30 0 17
-5 32 -5 35 0 3 5 16 5 30 0 15 -6 27 -6 30 0 3 6 15 6 30 0 15 -6 27 -6 30 0
3 6 15 6 30 0 15 -6 25 -6 25 0 0 5 12 5 30 0 17 -5 32 -5 35 0 3 5 16 5 30 0
15 -6 27 -6 30 0 3 6 15 6 30 0 15 -6 27 -6 30 0 3 6 15 6 30 0 15 -6 25 -6
25 0 0 5 12 5 30 0 17 -5 32 -5 35 0 3 5 16 5 30 0 15 -6 27 -6 30 0 3 6 15 6
30 0 15 -6 27 -6 30 0 3 6 15 6 30 0 15 -6 25 -6 25 0 0 5 12 5 30 0 17 -5 32
-5 35 0 3 5 16 5 30 0 15 -6 27 -6 30 0 3 6 15 6 30 0 15 -6 27 -6 30 0 3 6
15 6 30 0 15 -6 25 -6 25 0 0 5 12 5 30 0 17 -5 32 -5 35 0 3 5 16 5 30 0 15
-6 27 -6 30 0 3 6 15 6 29 0 13 -5 27 -6 30 -3 9 9 66 9 66 1 0 -4 6 -5 14 -2
18 7 226 11 226 4 0 -7 69 -4 76 3 3 3 17 2 30 -3 13 -5 24 -6 24 -2 0 8 33 7
125 -3 98 -11 110 -13 110 -15 0 -1 8 -3 17 -5 32 -6 188 -85 188 -95 0 -6 6
-10 14 -10 8 0 43 -31 78 -69 63 -68 143 -203 153 -259 3 -15 7 -38 11 -52 3
-14 7 -49 8 -78 2 -29 6 -55 9 -58 3 -3 2 -17 -3 -30 -6 -14 -6 -24 0 -24 5 0
5 -12 0 -30 -5 -17 -5 -30 0 -30 5 0 5 -13 0 -30 -5 -17 -5 -30 0 -30 5 0 5
-13 0 -30 -5 -17 -5 -30 0 -30 5 0 5 -13 0 -30 -5 -17 -5 -30 0 -30 5 0 5 -13
0 -30 -5 -17 -5 -30 0 -30 5 0 5 -13 0 -30 -5 -17 -5 -30 0 -30 5 0 5 -13 0
-30 -5 -17 -5 -30 0 -30 5 0 5 -13 0 -30 -5 -17 -5 -30 0 -30 5 0 5 -13 0 -30
-5 -17 -5 -30 0 -30 5 0 7 -6 5 -12 -2 -7 -7 -44 -9 -83 -6 -67 -28 -164 -46
-195 -5 -8 -21 -39 -36 -69 -58 -117 -230 -254 -364 -292 -67 -19 -70 -19
-133 -24 -32 -2 -62 -7 -67 -10 -6 -3 -10 -2 -10 4 0 5 -11 6 -27 2 -16 -4
-40 -4 -55 0 -16 4 -28 4 -28 -1 0 -6 -10 -6 -25 0 -15 6 -27 6 -30 0 -3 -6
-15 -6 -30 0 -15 6 -27 6 -30 0 -4 -6 -13 -7 -24 -1 -9 5 -23 6 -30 1 -8 -4
-27 -4 -42 0 -17 5 -29 5 -29 0 0 -6 -10 -6 -25 0 -15 6 -27 6 -30 0 -3 -6
-15 -6 -29 0 -13 5 -26 7 -28 4 -7 -7 -99 -10 -103 -4 -2 4 -29 3 -59 0 -31
-3 -56 -3 -56 1 0 4 -13 4 -30 -1 -19 -5 -30 -5 -30 1 0 6 -5 7 -11 3 -14 -8
-134 -8 -148 0 -6 4 -11 4 -11 -1 0 -4 -16 -8 -35 -8 -19 0 -35 4 -35 8 0 5
-5 5 -11 1 -14 -8 -134 -8 -148 0 -6 4 -11 4 -11 -1 0 -9 -142 -8 -166 1 -7 3
-14 1 -14 -4 0 -5 -13 -5 -30 0 -18 5 -30 5 -30 0 0 -6 -10 -6 -25 0 -15 6
-27 6 -30 0 -3 -6 -15 -6 -30 0 -15 6 -27 6 -30 0 -4 -6 -13 -7 -24 -1 -9 5
-23 6 -30 1 -8 -4 -27 -4 -42 0 -17 5 -29 5 -29 0 0 -6 -10 -6 -25 0 -15 6
-27 6 -30 0 -3 -6 -15 -6 -29 0 -13 5 -26 7 -29 4 -5 -5 -83 -8 -102 -4 -26 5
-62 4 -82 -2 -13 -4 -23 -4 -23 1 0 5 -15 6 -32 2 -18 -4 -45 -4 -60 0 -16 4
-30 3 -34 -2 -3 -6 -12 -6 -22 0 -9 5 -23 6 -32 1 -9 -5 -22 -5 -30 0 -8 5
-21 5 -31 -1 -11 -6 -20 -5 -24 1 -4 6 -15 6 -30 0 -14 -5 -25 -6 -25 -1 0 5
-15 6 -32 2 -18 -4 -45 -4 -60 0 -16 4 -30 3 -34 -2 -3 -5 -12 -5 -23 0 -10 6
-23 6 -31 1 -8 -5 -21 -5 -31 0 -9 5 -19 7 -22 4 -9 -9 -97 -10 -97 -1 0 5 -5
5 -10 2 -14 -9 -118 -10 -126 -2 -4 3 -15 2 -25 -3 -11 -7 -20 -7 -24 0 -3 6
-15 6 -30 0 -15 -6 -27 -6 -30 0 -3 6 -15 6 -30 0 -15 -6 -25 -6 -25 0 0 5
-12 5 -30 0 -17 -5 -32 -5 -35 0 -3 5 -16 5 -30 0 -15 -6 -27 -6 -30 0 -3 6
-15 6 -30 0 -15 -6 -27 -6 -30 0 -3 6 -15 6 -30 0 -15 -6 -25 -6 -25 0 0 5
-12 5 -29 0 -15 -4 -34 -4 -42 0 -7 5 -21 4 -30 -1 -11 -6 -20 -5 -24 1 -3 6
-15 6 -30 0 -15 -6 -27 -6 -30 0 -3 6 -15 6 -30 0 -15 -6 -25 -6 -25 0 0 5
-12 5 -30 0 -17 -5 -32 -5 -35 0 -3 5 -16 5 -30 0 -15 -6 -27 -6 -30 0 -3 6
-15 6 -30 0 -15 -6 -27 -6 -30 0 -3 6 -15 6 -30 0 -14 -5 -25 -6 -25 -2 0 4
-20 7 -45 7 -25 0 -45 -3 -45 -7 0 -4 -11 -3 -25 2 -15 6 -26 6 -30 -1 -4 -5
-11 -7 -16 -4 -5 4 -42 8 -81 9 -40 2 -93 9 -118 16 -25 7 -46 12 -47 11 -2 0
-39 18 -84 41 -143 72 -262 210 -314 363 -21 63 -24 76 -31 150 -3 33 -7 62
-10 64 -2 2 1 11 6 20 5 10 5 23 0 31 -4 7 -4 24 0 36 5 13 5 26 1 29 -5 3 -5
21 -1 40 4 19 4 35 0 35 -5 0 -5 13 0 30 5 17 5 32 0 35 -5 3 -5 16 0 30 6 15
6 27 0 30 -6 4 -7 13 -1 24 5 9 6 23 1 31 -4 7 -4 24 0 36 5 13 5 26 1 29 -5
3 -5 21 -1 40 4 19 4 35 0 35 -5 0 -5 13 0 30 5 18 5 32 -1 36 -5 3 -7 10 -4
15 4 5 8 42 10 81 5 93 20 161 48 213 6 11 11 23 12 26 1 21 94 145 141 188
51 47 158 117 167 109 1 -2 14 4 27 13 28 18 111 40 165 43 19 2 38 6 41 9 4
4 14 2 23 -2 8 -5 23 -6 31 -1z m120 -2574 c14 -2 25 -5 25 -6 0 -1 7 -3 16
-5 26 -5 162 -71 188 -91 66 -53 124 -113 161 -166 22 -32 40 -60 40 -62 0 -2
8 -21 17 -42 9 -22 18 -42 19 -46 1 -5 2 -9 4 -10 1 -2 3 -10 5 -18 2 -8 6
-28 10 -45 4 -16 8 -55 10 -85 1 -30 4 -59 5 -65 1 -5 2 -12 1 -15 -2 -3 -4
-24 -6 -47 -2 -23 -10 -61 -16 -85 -7 -24 -13 -45 -14 -48 0 -3 -7 -16 -15
-30 -7 -14 -13 -27 -12 -30 4 -18 -71 -124 -131 -184 -68 -67 -89 -80 -250
-158 -11 -5 -21 -7 -24 -4 -3 3 -15 0 -26 -6 -32 -17 -218 -18 -284 -2 -32 8
-63 16 -69 17 -7 2 -46 20 -89 41 -56 28 -97 58 -153 115 -123 122 -184 260
-186 418 -1 29 -5 53 -9 53 -5 0 -6 4 -3 9 5 8 14 57 20 113 1 10 5 21 9 24 4
4 7 15 7 25 0 9 19 54 42 100 51 103 162 218 253 264 33 17 62 33 65 36 5 6
11 8 115 33 55 13 202 14 275 2z m1910 0 c14 -3 37 -8 52 -11 15 -3 65 -24
110 -48 77 -40 178 -126 231 -197 20 -27 59 -99 63 -115 5 -19 29 -80 34 -85
3 -3 6 -16 7 -30 1 -14 4 -54 8 -90 8 -77 8 -74 6 -80 -1 -3 -4 -27 -7 -53 -3
-27 -11 -68 -19 -90 -8 -23 -15 -49 -15 -59 0 -9 -3 -18 -7 -20 -5 -1 -21 -30
-38 -63 -47 -93 -161 -202 -265 -253 -47 -23 -99 -44 -117 -47 -18 -3 -42 -9
-55 -14 -33 -12 -225 -7 -278 8 -25 7 -46 13 -47 12 -2 0 -39 18 -84 41 -167
84 -300 259 -337 443 -12 57 -6 247 8 285 1 3 3 10 4 15 14 71 90 199 162 272
59 59 175 142 186 132 2 -2 17 5 33 14 49 28 144 44 245 42 52 -2 106 -5 120
-9z m1920 0 c14 -3 37 -8 52 -11 15 -3 65 -24 110 -48 77 -40 178 -126 231
-197 20 -27 59 -99 63 -115 5 -19 29 -80 34 -85 3 -3 6 -16 7 -30 1 -14 4 -54
8 -90 8 -77 8 -74 6 -80 -1 -3 -4 -27 -7 -53 -3 -27 -11 -68 -19 -90 -8 -23
-15 -49 -15 -59 0 -9 -3 -18 -7 -20 -5 -1 -21 -30 -38 -63 -47 -93 -161 -202
-265 -253 -47 -23 -100 -44 -119 -47 -19 -3 -39 -9 -44 -12 -5 -3 -32 -7 -59
-8 -26 -1 -51 -5 -55 -8 -3 -4 -10 -4 -16 0 -5 3 -32 7 -61 9 -202 13 -411
154 -502 339 -21 43 -39 82 -41 89 -1 6 -9 37 -17 68 -17 68 -14 249 4 298 1
3 3 10 4 15 14 71 90 199 162 272 59 59 175 142 186 132 2 -2 17 5 33 14 49
28 144 44 245 42 52 -1 106 -5 120 -9z m-3830 -1920 c14 -2 25 -5 25 -6 0 -1
7 -3 16 -5 26 -5 162 -71 188 -91 66 -53 124 -113 161 -166 22 -32 40 -60 40
-62 0 -2 8 -21 17 -42 9 -22 18 -42 19 -46 1 -5 2 -9 4 -10 1 -2 3 -10 5 -18
2 -8 6 -28 10 -45 13 -54 10 -257 -5 -295 -1 -3 -3 -9 -4 -15 -14 -71 -90
-199 -162 -272 -61 -61 -164 -134 -191 -135 -4 0 -17 -5 -28 -11 -11 -6 -22
-12 -25 -12 -3 -1 -25 -7 -50 -15 -64 -18 -230 -20 -304 -3 -210 48 -391 213
-461 418 -21 61 -28 104 -29 172 -1 29 -5 53 -9 53 -5 0 -6 4 -3 9 5 8 14 57
20 113 1 10 5 21 9 24 4 4 7 15 7 25 0 9 19 54 42 100 51 103 162 218 253 264
33 17 62 33 65 36 5 6 11 8 115 33 55 13 201 14 275 2z m1940 -5 c234 -66 422
-265 468 -496 11 -57 6 -251 -8 -285 -1 -3 -3 -9 -4 -15 -14 -71 -90 -199
-162 -272 -61 -61 -164 -134 -191 -135 -4 0 -17 -5 -28 -11 -11 -6 -22 -12
-25 -12 -3 -1 -25 -7 -50 -15 -64 -18 -230 -20 -304 -3 -238 55 -436 259 -484
498 -12 57 -6 247 8 285 1 3 3 10 4 15 14 71 90 199 162 272 59 59 175 142
186 132 2 -2 17 5 33 14 73 42 290 57 395 28z m1920 0 c231 -65 411 -253 467
-486 9 -41 11 -216 2 -247 -5 -18 -12 -46 -14 -63 -3 -16 -24 -68 -47 -115
-32 -66 -58 -102 -119 -161 -43 -43 -100 -88 -130 -103 -30 -15 -61 -31 -69
-36 -26 -15 -123 -40 -180 -46 -67 -7 -62 -7 -130 1 -30 4 -66 7 -80 8 -14 1
-27 4 -30 7 -5 5 -66 29 -85 34 -16 4 -88 43 -115 63 -71 53 -157 154 -197
231 -24 45 -45 95 -48 110 -3 15 -8 38 -11 52 -13 48 -8 251 6 290 1 3 3 10 4
15 14 71 90 199 162 272 59 59 175 142 186 132 2 -2 17 5 33 14 73 42 290 57
395 28z m-3960 -1903 c0 4 19 6 42 4 24 -1 49 -3 56 -2 6 0 19 0 27 0 8 0 22
0 30 0 8 0 22 0 30 0 8 0 22 0 30 0 8 0 22 0 30 0 8 0 22 0 30 0 8 0 22 0 30
0 8 0 22 0 30 0 8 0 22 0 30 0 8 0 22 0 30 0 8 0 22 0 30 0 8 0 22 0 30 0 8 0
22 0 30 0 8 0 22 0 30 0 8 0 22 0 30 0 8 0 22 0 30 0 8 0 22 0 30 0 8 0 22 0
30 0 8 0 22 0 30 0 8 0 22 0 30 0 8 0 22 0 30 0 8 0 22 0 30 0 8 0 22 0 30 0
8 0 22 0 30 0 8 0 22 0 30 0 8 0 22 0 30 0 8 0 22 0 30 0 8 0 22 0 30 0 8 0
22 0 30 0 8 0 22 0 30 0 8 0 22 0 30 0 8 0 22 0 30 0 8 0 22 0 30 0 8 0 22 0
30 0 8 0 22 0 30 0 8 0 22 0 30 0 8 0 22 0 30 0 8 0 22 0 30 0 8 0 22 0 30 0
8 0 22 0 30 0 8 0 22 0 30 0 8 0 22 0 30 0 8 0 22 0 30 0 8 0 22 0 30 0 8 0
22 0 30 0 8 0 22 0 30 0 8 0 22 0 30 0 8 0 22 0 30 0 8 0 22 0 30 0 8 0 22 0
30 0 8 0 22 0 30 0 8 0 22 0 30 0 8 0 22 0 30 0 8 0 22 0 30 0 8 0 22 0 30 0
8 0 22 0 30 0 8 0 21 0 28 1 52 2 200 -10 237 -21 233 -64 421 -263 468 -495
12 -57 6 -247 -8 -285 -1 -3 -3 -9 -4 -15 -13 -69 -91 -199 -161 -271 -59 -60
-176 -143 -188 -132 -1 2 -14 -4 -27 -13 -36 -23 -115 -41 -197 -44 -39 -2
-76 -6 -82 -9 -5 -4 -12 -2 -16 3 -3 7 -15 7 -30 1 -15 -6 -27 -6 -30 1 -4 5
-11 6 -17 3 -14 -9 -138 -11 -138 -2 0 4 -11 3 -25 -2 -16 -6 -25 -6 -25 0 0
6 -9 6 -25 0 -15 -6 -27 -6 -30 0 -3 6 -15 6 -30 0 -15 -6 -27 -6 -30 1 -4 5
-11 6 -17 3 -14 -9 -138 -11 -138 -2 0 4 -11 3 -25 -2 -16 -6 -25 -6 -25 0 0
6 -9 6 -25 0 -15 -6 -27 -6 -30 0 -3 6 -15 6 -30 0 -15 -6 -27 -6 -30 1 -4 5
-11 6 -17 3 -14 -9 -138 -11 -138 -2 0 4 -11 3 -25 -2 -16 -6 -25 -6 -25 0 0
6 -9 6 -25 0 -15 -6 -27 -6 -30 0 -3 6 -15 6 -30 0 -15 -6 -27 -6 -30 1 -4 5
-11 6 -17 3 -14 -9 -138 -11 -138 -2 0 4 -10 4 -22 0 -26 -9 -75 -8 -84 1 -3
3 -17 2 -30 -3 -14 -6 -26 -6 -29 0 -3 6 -15 6 -30 0 -15 -6 -27 -6 -30 0 -3
6 -15 6 -30 0 -15 -6 -27 -6 -30 0 -4 6 -13 7 -24 1 -9 -5 -23 -6 -31 -1 -7 4
-24 4 -36 0 -14 -6 -26 -5 -29 0 -3 6 -15 6 -30 0 -15 -6 -27 -6 -30 0 -3 6
-15 6 -30 0 -15 -6 -27 -6 -30 1 -4 6 -13 6 -23 0 -9 -5 -23 -6 -32 -1 -9 5
-22 5 -30 0 -8 -5 -21 -5 -31 1 -12 6 -20 5 -24 -1 -4 -6 -10 -8 -15 -5 -5 3
-35 8 -67 10 -155 13 -279 71 -394 187 -131 130 -189 277 -184 463 2 55 6 111
9 124 9 40 28 95 39 116 6 11 11 23 12 26 1 21 94 145 141 188 51 47 154 115
169 111 3 -1 16 5 28 13 26 17 114 39 169 42 21 1 41 5 44 8 3 3 19 1 35 -3
16 -5 29 -6 29 -2z m3960 -17 c207 -59 377 -218 445 -416 21 -61 28 -104 29
-172 1 -29 5 -53 9 -53 5 0 6 -4 3 -9 -3 -5 -8 -28 -11 -51 -3 -24 -8 -46 -10
-50 -2 -4 -7 -22 -10 -41 -3 -19 -24 -72 -47 -119 -51 -104 -160 -218 -253
-265 -33 -17 -61 -33 -63 -37 -2 -5 -11 -8 -20 -8 -9 0 -35 -7 -58 -15 -23 -7
-65 -17 -95 -20 -70 -8 -65 -8 -134 0 -33 3 -71 7 -85 8 -14 1 -27 4 -30 7 -5
5 -66 29 -85 34 -16 4 -88 43 -115 63 -71 53 -157 154 -197 231 -24 45 -45 95
-48 110 -3 15 -7 38 -11 52 -3 14 -7 50 -9 80 -2 30 -4 57 -6 60 -1 3 0 10 1
15 1 6 3 27 5 49 5 56 26 138 42 163 8 12 14 26 14 30 -1 19 61 112 109 165
42 47 167 142 189 143 3 1 15 6 26 12 25 13 84 32 122 39 15 3 29 7 31 8 8 9
223 -2 262 -13z"/>
</g>
</svg>
